<?xml version="1.0" encoding="utf-8"?>
<svg xmlns="http://www.w3.org/2000/svg" version="1.1" width="1000" height="800">

<rect x="200" y="80" width="300" height="120" stroke="black" fill="rgb(240,255,255)" transform="rotate(0,0,0)" />
<text x="346" y="134.545" fill="yellow" font-size="5" >room</text>
<rect x="170" y="80" width="30" height="120" stroke="black" fill="rgb(169,169,169)" transform="rotate(0,0,0)" />
<rect x="200" y="101" width="30" height="30" stroke="black" fill="rgb(32,178,170)" transform="rotate(0,200,101)" />
<rect x="230" y="103.5" width="25" height="25" stroke="black" fill="rgb(32,178,170)" transform="rotate(0,230,103.5)" />
<rect x="255" y="106" width="20" height="20" stroke="black" fill="rgb(32,178,170)" transform="rotate(0,255,106)" />
<rect x="275" y="108.5" width="15" height="15" stroke="black" fill="rgb(32,178,170)" transform="rotate(0,275,108.5)" />
<rect x="290" y="111" width="10" height="10" stroke="black" fill="rgb(32,178,170)" transform="rotate(0,290,111)" />
<rect x="300" y="113.5" width="5" height="5" stroke="black" fill="rgb(32,178,170)" transform="rotate(0,300,113.5)" />
<rect x="305" y="114.5" width="3" height="3" stroke="black" fill="rgb(32,178,170)" transform="rotate(0,305,114.5)" />
<text x="297.5" y="118" fill="yellow" font-size="5" >tentacle7</text>
<line x1="305" y1="113.5" x2="305" y2="118.5" stroke="red" />
<polygon points=" 302.5,118.3 305,118.5 307.5,118.3" style="fill:red" />
<text x="293.5" y="118" fill="yellow" font-size="5" >tentacle6</text>
<line x1="300" y1="111" x2="300" y2="121" stroke="red" />
<polygon points=" 297.5,120.6 300,121 302.5,120.6" style="fill:red" />
<text x="286" y="118" fill="yellow" font-size="5" >tentacle5</text>
<line x1="290" y1="108.5" x2="290" y2="123.5" stroke="red" />
<polygon points=" 287.5,122.9 290,123.5 292.5,122.9" style="fill:red" />
<text x="273.5" y="118" fill="yellow" font-size="5" >tentacle4</text>
<line x1="275" y1="106" x2="275" y2="126" stroke="red" />
<polygon points=" 272.5,125.2 275,126 277.5,125.2" style="fill:red" />
<text x="256" y="118" fill="yellow" font-size="5" >tentacle3</text>
<line x1="255" y1="103.5" x2="255" y2="128.5" stroke="red" />
<polygon points=" 252.5,127.5 255,128.5 257.5,127.5" style="fill:red" />
<text x="233.5" y="118" fill="yellow" font-size="5" >tentacle2</text>
<line x1="230" y1="101" x2="230" y2="131" stroke="red" />
<polygon points=" 227.5,129.8 230,131 232.5,129.8" style="fill:red" />
<text x="206" y="118" fill="yellow" font-size="5" >tentacle1</text>
<line x1="200" y1="80" x2="200" y2="200" stroke="red" />
<polygon points=" 197.5,195.2 200,200 202.5,195.2" style="fill:red" />
<text x="177" y="134.545" fill="yellow" font-size="5" >leftWall</text>
<rect x="170" y="200" width="360" height="30" stroke="black" fill="rgb(169,169,169)" transform="rotate(0,0,0)" />
<rect x="240.5" y="190" width="3" height="10" stroke="black" fill="rgb(128,0,128)" transform="rotate(0,240.5,190)" />
<rect x="234.5" y="180" width="6" height="10" stroke="black" fill="black" transform="rotate(0,234.5,180)" />
<rect x="234.5" y="165" width="100" height="15" stroke="black" fill="rgb(153,50,204)" transform="rotate(0,234.5,165)" />
<text x="278.5" y="174.5" fill="yellow" font-size="5" >beetle</text>
<line x1="234.5" y1="180" x2="240.5" y2="180" stroke="red" />
<polygon points=" 240.26,177.5 240.5,180 240.26,182.5" style="fill:red" />
<text x="233.5" y="187" fill="yellow" font-size="5" >leg1</text>
<line x1="240.5" y1="190" x2="243.5" y2="190" stroke="red" />
<polygon points=" 243.38,187.5 243.5,190 243.38,192.5" style="fill:red" />
<text x="237" y="197" fill="yellow" font-size="5" >foot1</text>
<line x1="170" y1="200" x2="530" y2="200" stroke="red" />
<polygon points=" 515.6,197.5 530,200 515.6,202.5" style="fill:red" />
<rect x="254.9" y="192.608" width="3" height="10" stroke="black" fill="rgb(128,0,128)" transform="rotate(-34.5,254.9,192.608)" />
<rect x="244.291" y="187.766" width="6" height="10" stroke="black" fill="black" transform="rotate(-34.5,244.291,187.766)" />
<text x="239.931" y="192.187" fill="yellow" font-size="5" >leg2</text>
<line x1="254.9" y1="192.608" x2="257.372" y2="190.909" stroke="red" />
<polygon points=" 255.857,188.917 257.372,190.909 258.689,193.037" style="fill:red" />
<text x="248.304" y="197.879" fill="yellow" font-size="5" >foot2</text>
<line x1="170" y1="200" x2="530" y2="200" stroke="red" />
<polygon points=" 515.6,197.5 530,200 515.6,202.5" style="fill:red" />
<rect x="276.5" y="190" width="3" height="10" stroke="black" fill="rgb(128,0,128)" transform="rotate(0,276.5,190)" />
<rect x="270.5" y="180" width="6" height="10" stroke="black" fill="black" transform="rotate(0,270.5,180)" />
<text x="269.5" y="187" fill="yellow" font-size="5" >leg3</text>
<line x1="276.5" y1="190" x2="279.5" y2="190" stroke="red" />
<polygon points=" 279.38,187.5 279.5,190 279.38,192.5" style="fill:red" />
<text x="273" y="197" fill="yellow" font-size="5" >foot3</text>
<line x1="170" y1="200" x2="530" y2="200" stroke="red" />
<polygon points=" 515.6,197.5 530,200 515.6,202.5" style="fill:red" />
<rect x="290.9" y="192.608" width="3" height="10" stroke="black" fill="rgb(128,0,128)" transform="rotate(-34.5,290.9,192.608)" />
<rect x="280.291" y="187.766" width="6" height="10" stroke="black" fill="black" transform="rotate(-34.5,280.291,187.766)" />
<text x="275.931" y="192.187" fill="yellow" font-size="5" >leg4</text>
<line x1="290.9" y1="192.608" x2="293.372" y2="190.909" stroke="red" />
<polygon points=" 291.857,188.917 293.372,190.909 294.689,193.037" style="fill:red" />
<text x="284.304" y="197.879" fill="yellow" font-size="5" >foot4</text>
<line x1="170" y1="200" x2="530" y2="200" stroke="red" />
<polygon points=" 515.6,197.5 530,200 515.6,202.5" style="fill:red" />
<rect x="312.5" y="190" width="3" height="10" stroke="black" fill="rgb(128,0,128)" transform="rotate(0,312.5,190)" />
<rect x="306.5" y="180" width="6" height="10" stroke="black" fill="black" transform="rotate(0,306.5,180)" />
<text x="305.5" y="187" fill="yellow" font-size="5" >leg5</text>
<line x1="312.5" y1="190" x2="315.5" y2="190" stroke="red" />
<polygon points=" 315.38,187.5 315.5,190 315.38,192.5" style="fill:red" />
<text x="309" y="197" fill="yellow" font-size="5" >foot5</text>
<line x1="170" y1="200" x2="530" y2="200" stroke="red" />
<polygon points=" 515.6,197.5 530,200 515.6,202.5" style="fill:red" />
<rect x="335.283" y="210.003" width="3" height="10" stroke="black" fill="rgb(128,0,128)" transform="rotate(180.1,335.283,210.003)" />
<rect x="341.265" y="220.013" width="6" height="10" stroke="black" fill="black" transform="rotate(180.1,341.265,220.013)" />
<text x="334.256" y="217.008" fill="yellow" font-size="5" >leg6</text>
<line x1="335.283" y1="210.003" x2="332.283" y2="209.997" stroke="red" />
<polygon points=" 332.398,212.498 332.283,209.997 332.407,207.498" style="fill:red" />
<text x="328.774" y="207" fill="yellow" font-size="5" >foot6</text>
<line x1="170" y1="200" x2="530" y2="200" stroke="red" />
<polygon points=" 515.6,197.5 530,200 515.6,202.5" style="fill:red" />
<rect x="414.5" y="150" width="15" height="50" stroke="black" fill="rgb(0,128,0)" transform="rotate(0,414.5,150)" />
<rect x="384.5" y="150" width="30" height="10" stroke="black" fill="rgb(0,128,0)" transform="rotate(0,384.5,150)" />
<rect x="379.5" y="148" width="5" height="2" stroke="black" fill="rgb(0,128,0)" transform="rotate(0,379.5,148)" />
<text x="376" y="151" fill="yellow" font-size="5" >finger</text>
<line x1="384.5" y1="150" x2="384.5" y2="160" stroke="red" />
<polygon points=" 382,159.6 384.5,160 387,159.6" style="fill:red" />
<rect x="379.5" y="154" width="5" height="2" stroke="black" fill="rgb(0,128,0)" transform="rotate(0,379.5,154)" />
<text x="376" y="157" fill="yellow" font-size="5" >finger</text>
<line x1="384.5" y1="150" x2="384.5" y2="160" stroke="red" />
<polygon points=" 382,159.6 384.5,160 387,159.6" style="fill:red" />
<rect x="379.5" y="160" width="5" height="2" stroke="black" fill="rgb(0,128,0)" transform="rotate(0,379.5,160)" />
<text x="376" y="163" fill="yellow" font-size="5" >finger</text>
<line x1="384.5" y1="150" x2="384.5" y2="160" stroke="red" />
<polygon points=" 382,159.6 384.5,160 387,159.6" style="fill:red" />
<rect x="394.5" y="130" width="10" height="20" stroke="black" fill="rgb(0,128,0)" transform="rotate(0,394.5,130)" />
<rect x="392.5" y="125" width="2" height="5" stroke="black" fill="rgb(0,128,0)" transform="rotate(0,392.5,125)" />
<text x="387.5" y="129.5" fill="yellow" font-size="5" >finger</text>
<line x1="394.5" y1="130" x2="404.5" y2="130" stroke="red" />
<polygon points=" 404.1,127.5 404.5,130 404.1,132.5" style="fill:red" />
<rect x="398.5" y="125" width="2" height="5" stroke="black" fill="rgb(0,128,0)" transform="rotate(0,398.5,125)" />
<text x="393.5" y="129.5" fill="yellow" font-size="5" >finger</text>
<line x1="394.5" y1="130" x2="404.5" y2="130" stroke="red" />
<polygon points=" 404.1,127.5 404.5,130 404.1,132.5" style="fill:red" />
<rect x="404.5" y="125" width="2" height="5" stroke="black" fill="rgb(0,128,0)" transform="rotate(0,404.5,125)" />
<text x="399.5" y="129.5" fill="yellow" font-size="5" >finger</text>
<line x1="394.5" y1="130" x2="404.5" y2="130" stroke="red" />
<polygon points=" 404.1,127.5 404.5,130 404.1,132.5" style="fill:red" />
<text x="391.5" y="142" fill="yellow" font-size="5" >forearm2</text>
<line x1="384.5" y1="150" x2="414.5" y2="150" stroke="red" />
<polygon points=" 413.3,147.5 414.5,150 413.3,152.5" style="fill:red" />
<rect x="394.5" y="160" width="10" height="20" stroke="black" fill="rgb(0,128,0)" transform="rotate(0,394.5,160)" />
<rect x="392.5" y="180" width="2" height="5" stroke="black" fill="rgb(0,128,0)" transform="rotate(0,392.5,180)" />
<text x="387.5" y="184.5" fill="yellow" font-size="5" >finger</text>
<line x1="394.5" y1="180" x2="404.5" y2="180" stroke="red" />
<polygon points=" 404.1,177.5 404.5,180 404.1,182.5" style="fill:red" />
<rect x="398.5" y="180" width="2" height="5" stroke="black" fill="rgb(0,128,0)" transform="rotate(0,398.5,180)" />
<text x="393.5" y="184.5" fill="yellow" font-size="5" >finger</text>
<line x1="394.5" y1="180" x2="404.5" y2="180" stroke="red" />
<polygon points=" 404.1,177.5 404.5,180 404.1,182.5" style="fill:red" />
<rect x="404.5" y="180" width="2" height="5" stroke="black" fill="rgb(0,128,0)" transform="rotate(0,404.5,180)" />
<text x="399.5" y="184.5" fill="yellow" font-size="5" >finger</text>
<line x1="394.5" y1="180" x2="404.5" y2="180" stroke="red" />
<polygon points=" 404.1,177.5 404.5,180 404.1,182.5" style="fill:red" />
<text x="391.5" y="172" fill="yellow" font-size="5" >forearm1</text>
<line x1="384.5" y1="160" x2="414.5" y2="160" stroke="red" />
<polygon points=" 413.3,157.5 414.5,160 413.3,162.5" style="fill:red" />
<text x="395.5" y="157" fill="yellow" font-size="5" >arm1</text>
<line x1="414.5" y1="150" x2="414.5" y2="200" stroke="red" />
<polygon points=" 412,198 414.5,200 417,198" style="fill:red" />
<rect x="416" y="140" width="12" height="10" stroke="black" fill="rgb(128,128,0)" transform="rotate(0,416,140)" />
<rect x="416" y="139.5" width="3" height="3" stroke="black" fill="black" transform="rotate(0,416,139.5)" />
<text x="414.5" y="143" fill="yellow" font-size="5" >eye</text>
<line x1="416" y1="140" x2="416" y2="150" stroke="red" />
<polygon points=" 413.5,149.6 416,150 418.5,149.6" style="fill:red" />
<rect x="425" y="139.5" width="3" height="3" stroke="black" fill="black" transform="rotate(0,425,139.5)" />
<text x="423.5" y="143" fill="yellow" font-size="5" >eye</text>
<line x1="428" y1="140" x2="428" y2="150" stroke="red" />
<polygon points=" 425.5,149.6 428,150 430.5,149.6" style="fill:red" />
<text x="418" y="147" fill="yellow" font-size="5" >head</text>
<line x1="414.5" y1="150" x2="429.5" y2="150" stroke="red" />
<polygon points=" 428.9,147.5 429.5,150 428.9,152.5" style="fill:red" />
<rect x="429.5" y="150" width="30" height="10" stroke="black" fill="rgb(0,128,0)" transform="rotate(0,429.5,150)" />
<rect x="459.5" y="148" width="5" height="2" stroke="black" fill="rgb(0,128,0)" transform="rotate(0,459.5,148)" />
<text x="456" y="151" fill="yellow" font-size="5" >finger</text>
<line x1="459.5" y1="150" x2="459.5" y2="160" stroke="red" />
<polygon points=" 457,159.6 459.5,160 462,159.6" style="fill:red" />
<rect x="459.5" y="154" width="5" height="2" stroke="black" fill="rgb(0,128,0)" transform="rotate(0,459.5,154)" />
<text x="456" y="157" fill="yellow" font-size="5" >finger</text>
<line x1="459.5" y1="150" x2="459.5" y2="160" stroke="red" />
<polygon points=" 457,159.6 459.5,160 462,159.6" style="fill:red" />
<rect x="459.5" y="160" width="5" height="2" stroke="black" fill="rgb(0,128,0)" transform="rotate(0,459.5,160)" />
<text x="456" y="163" fill="yellow" font-size="5" >finger</text>
<line x1="459.5" y1="150" x2="459.5" y2="160" stroke="red" />
<polygon points=" 457,159.6 459.5,160 462,159.6" style="fill:red" />
<rect x="439.5" y="130" width="10" height="20" stroke="black" fill="rgb(0,128,0)" transform="rotate(0,439.5,130)" />
<rect x="437.5" y="125" width="2" height="5" stroke="black" fill="rgb(0,128,0)" transform="rotate(0,437.5,125)" />
<text x="432.5" y="129.5" fill="yellow" font-size="5" >finger</text>
<line x1="439.5" y1="130" x2="449.5" y2="130" stroke="red" />
<polygon points=" 449.1,127.5 449.5,130 449.1,132.5" style="fill:red" />
<rect x="443.5" y="125" width="2" height="5" stroke="black" fill="rgb(0,128,0)" transform="rotate(0,443.5,125)" />
<text x="438.5" y="129.5" fill="yellow" font-size="5" >finger</text>
<line x1="439.5" y1="130" x2="449.5" y2="130" stroke="red" />
<polygon points=" 449.1,127.5 449.5,130 449.1,132.5" style="fill:red" />
<rect x="449.5" y="125" width="2" height="5" stroke="black" fill="rgb(0,128,0)" transform="rotate(0,449.5,125)" />
<text x="444.5" y="129.5" fill="yellow" font-size="5" >finger</text>
<line x1="439.5" y1="130" x2="449.5" y2="130" stroke="red" />
<polygon points=" 449.1,127.5 449.5,130 449.1,132.5" style="fill:red" />
<text x="436.5" y="142" fill="yellow" font-size="5" >forearm2</text>
<line x1="429.5" y1="150" x2="459.5" y2="150" stroke="red" />
<polygon points=" 458.3,147.5 459.5,150 458.3,152.5" style="fill:red" />
<rect x="439.5" y="160" width="10" height="20" stroke="black" fill="rgb(0,128,0)" transform="rotate(0,439.5,160)" />
<rect x="437.5" y="180" width="2" height="5" stroke="black" fill="rgb(0,128,0)" transform="rotate(0,437.5,180)" />
<text x="432.5" y="184.5" fill="yellow" font-size="5" >finger</text>
<line x1="439.5" y1="180" x2="449.5" y2="180" stroke="red" />
<polygon points=" 449.1,177.5 449.5,180 449.1,182.5" style="fill:red" />
<rect x="443.5" y="180" width="2" height="5" stroke="black" fill="rgb(0,128,0)" transform="rotate(0,443.5,180)" />
<text x="438.5" y="184.5" fill="yellow" font-size="5" >finger</text>
<line x1="439.5" y1="180" x2="449.5" y2="180" stroke="red" />
<polygon points=" 449.1,177.5 449.5,180 449.1,182.5" style="fill:red" />
<rect x="449.5" y="180" width="2" height="5" stroke="black" fill="rgb(0,128,0)" transform="rotate(0,449.5,180)" />
<text x="444.5" y="184.5" fill="yellow" font-size="5" >finger</text>
<line x1="439.5" y1="180" x2="449.5" y2="180" stroke="red" />
<polygon points=" 449.1,177.5 449.5,180 449.1,182.5" style="fill:red" />
<text x="436.5" y="172" fill="yellow" font-size="5" >forearm1</text>
<line x1="429.5" y1="160" x2="459.5" y2="160" stroke="red" />
<polygon points=" 458.3,157.5 459.5,160 458.3,162.5" style="fill:red" />
<text x="440.5" y="157" fill="yellow" font-size="5" >arm1</text>
<line x1="429.5" y1="150" x2="429.5" y2="200" stroke="red" />
<polygon points=" 427,198 429.5,200 432,198" style="fill:red" />
<text x="415" y="177" fill="yellow" font-size="5" >polybot</text>
<line x1="170" y1="200" x2="530" y2="200" stroke="red" />
<polygon points=" 515.6,197.5 530,200 515.6,202.5" style="fill:red" />
<text x="344" y="213.636" fill="yellow" font-size="5" >ground</text>


</svg>
